# xmcd
#
# Track frame offsets:
#	150
#	8118
#	17529
#	30343
#	55305
#	63542
#	77754
#	91911
#	105037
#	119135
#	126190
#	136786
#	148349
#	159430
#	172828
#	186422
#	199959
#	213247
#	228109
#	237661
#	249272
#	265990
#	282142
#	296264
#	310606
#
# Disc length: 4323 seconds
#
# Revision: 6
# Processed by: cddbd v1.5.2PL0 Copyright (c) Steve Scherf et al.
# Submitted via: EZCDAudioConverter 7.0.9.1
#
DISCID=5410e119
DTITLE=Leadbelly and Josh White - Triomphes du Blues 12, Blues and Folksongs
DYEAR=2001
DGENRE=Blues
TTITLE0=Leadbelly - Irene - 1943
TTITLE1=Leadbelly - Midnight special - 1935
TTITLE2=Leadbelly - Good morning blues - 1940
TTITLE3=Leadbelly - Bourgeois blues - 1939
TTITLE4=Leadbelly - Oh Monday - 1943
TTITLE5=Leadbelly - Pigmeat - 1935
TTITLE6=Leadbelly - Black snake moan - 1935
TTITLE7=Leadbelly - See see rider - 1935
TTITLE8=Leadbelly - Alberta - 1940
TTITLE9=Leadbelly - Take this hammer - 1945
TTITLE10=Leadbelly - Yellow Gal - 1945
TTITLE11=Leadbelly - Little Sally Walker - 1944
TTITLE12=Leadbelly - I got a pretty flower - 1944
TTITLE13=Josh White - Little brother blues - 1932
TTITLE14=Josh White - Jesus gonna make up my dying bed - 1933
TTITLE15=Josh White - While the blood runs in your veins - 1935
TTITLE16=Josh White - My soul gonna leave with god - 1935
TTITLE17=Josh White - Trouble - 1940
TTITLE18=Josh White - Jerry - 1940
TTITLE19=Josh White - Bad housing blues - 1941
TTITLE20=Josh White - Number 12 train - 1944
TTITLE21=Josh White - St James Infirmary - 1944
TTITLE22=Josh White - Blues in Berlin - 1944
TTITLE23=Josh White -  T.B. blues- 1944
TTITLE24=Josh White - I left a good deal in mobile - 1945
EXTD=
EXTT0=
EXTT1=
EXTT2=
EXTT3=
EXTT4=
EXTT5=
EXTT6=
EXTT7=
EXTT8=
EXTT9=
EXTT10=
EXTT11=
EXTT12=
EXTT13=
EXTT14=
EXTT15=
EXTT16=
EXTT17=
EXTT18=
EXTT19=
EXTT20=
EXTT21=
EXTT22=
EXTT23=
EXTT24=
PLAYORDER=
